<svg width="182" height="59" viewBox="0 0 182 59" fill="none" xmlns="http://www.w3.org/2000/svg">
<path d="M95.468 39L94.402 36.088H88.11L86.94 39H82.182L88.838 21.658H93.752L100.278 39H95.468ZM89.358 32.656H93.206L91.256 27.04L89.358 32.656ZM113.036 25.48H109.344V39H104.846V25.48H101.154V21.658H113.036V25.48ZM126.184 21.658V25.48H120.828V28.366H125.898V32.188H120.828V35.178H126.184V39H116.33V21.658H126.184ZM130.351 21.658H134.849V35.178H140.257V39H130.351V21.658ZM143.864 21.658H148.362V39H143.864V21.658ZM163.168 21.658V25.48H157.812V28.366H162.882V32.188H157.812V35.178H163.168V39H153.314V21.658H163.168ZM167.335 21.658H174.355C176.192 21.658 177.605 22.1693 178.593 23.192C179.581 24.1973 180.075 25.4973 180.075 27.092C180.075 28.6173 179.616 29.822 178.697 30.706C178.056 31.3127 177.258 31.7113 176.305 31.902L181.739 39H176.149L171.833 32.344V39H167.335V21.658ZM171.833 25.142V29.432H172.691C173.662 29.432 174.39 29.198 174.875 28.73C175.256 28.3487 175.447 27.8633 175.447 27.274C175.447 26.6673 175.248 26.182 174.849 25.818C174.398 25.3673 173.679 25.142 172.691 25.142H171.833Z" fill="black"/>
<rect x="1.94824" y="1.94827" width="55.1034" height="55.1034" rx="6" fill="black" stroke="black" stroke-width="2" stroke-dasharray="5 5"/>
<path d="M34.537 48.2732C32.7212 47.8426 31.0806 46.4893 30.1727 44.69C29.44 43.229 29.1852 42.1371 29.01 39.4458C28.787 36.2162 28.6596 35.6472 27.8472 34.0324C26.7004 31.7564 25.7447 30.5876 20.9822 25.5279C15.28 19.4841 10.1034 13.6401 9.96001 13.0865C9.76887 12.3175 10.7246 11.3948 11.521 11.5793C12.1262 11.7331 18.3541 16.9004 25.1076 22.8366C29.0737 26.3276 30.7621 27.6502 32.6257 28.7267C34.8078 29.9724 35.9228 30.2492 39.4907 30.4338C42.9311 30.6029 44.062 30.8644 45.4318 31.7871C47.7414 33.3558 48.7289 36.2624 47.6936 38.4615C47.3273 39.2459 45.2407 41.3681 44.4761 41.7526C43.0585 42.46 41.9117 41.891 38.5668 38.7999C37.2767 37.5849 36.1298 36.6007 36.0502 36.6007C35.6838 36.6007 36.2095 37.2466 38.1527 39.1997C41.3065 42.3831 41.8958 43.3828 41.3065 44.6592C40.9242 45.5204 38.742 47.5966 37.8023 48.0118C36.9899 48.3809 35.4449 48.5039 34.537 48.2732ZM37.0537 45.8587C38.3757 45.1206 38.9013 43.6596 38.2642 42.46C37.8501 41.6603 35.6679 39.4458 34.4096 38.523C33.1831 37.6311 32.6257 37.5234 32.0682 38.0463C31.654 38.4462 31.654 38.4769 31.654 40.6453C31.67 42.9829 31.7655 43.4135 32.6257 44.6284C33.661 46.0741 35.6679 46.6277 37.0537 45.8587ZM44.1417 38.846C44.8266 38.4923 45.6867 37.4773 45.8141 36.8621C45.9415 36.2008 45.6867 35.1551 45.2407 34.5553C44.5876 33.6633 42.74 33.1405 39.6181 32.9559C37.5793 32.8483 37.2289 32.9713 37.3563 33.8479C37.4678 34.663 38.4235 35.8318 40.1119 37.2466C42.2144 38.9998 43.1063 39.3535 44.1417 38.846Z" fill="white"/>
</svg>
