<svg width="86" height="86" viewBox="0 0 86 86" fill="none" xmlns="http://www.w3.org/2000/svg">
<rect width="86" height="86" rx="10" fill="black"/>
<path d="M53.9641 10.2449C52.3037 10.8624 51.4255 12.6326 51.947 14.3479C52.1391 15.0065 52.9898 16.0083 53.5662 16.2416L53.9779 16.4062V17.6138V18.8076L53.2231 18.89C52.3037 18.986 51.3981 19.48 50.8629 20.1661C50.6571 20.4406 50.3689 21.1404 50.2042 21.7716L49.9023 22.8969L48.9967 22.8557C47.7342 22.7871 47.0755 23.1164 45.621 24.5298C44.5095 25.6139 44.1939 25.8197 40.4614 27.9055C36.4271 30.1422 35.7684 30.6225 35.0411 31.7477C34.355 32.8181 34.2178 33.6688 34.2178 36.8524V39.7067H35.3156H36.4133V36.921C36.4133 33.7237 36.5231 33.1611 37.3465 32.3515C37.6346 32.0908 39.4048 31.0067 41.2847 29.9638L44.7153 28.0564L49.3397 37.2778L53.9641 46.4992V57.3672L53.9779 68.249H49.0378H44.0978V69.3468V70.4446H47.9401H51.7823V73.189V75.9335H52.8801H53.9779V73.189V70.4446H55.0756H56.1734V73.189V75.9335H57.2712H58.369V73.189V70.4446H62.4582C67.2473 70.4446 67.4806 70.4034 68.4274 69.3468C69.1684 68.5234 69.3468 67.9334 69.3468 66.273V64.9556H71.2405C73.6144 64.9556 74.177 64.791 75.0141 63.8579C75.3434 63.5011 75.6865 62.9522 75.7688 62.6503C75.9747 61.9505 76.0021 34.3275 75.7963 33.4218C75.563 32.4613 75.1102 31.6105 74.3692 30.8421C73.7928 30.2246 72.9969 29.7306 69.6899 27.8918C65.9437 25.8197 65.6418 25.6276 64.5303 24.5298C63.0757 23.1164 62.4171 22.7871 61.1546 22.8557L60.2489 22.8969L59.947 21.7579C59.4668 19.9603 58.5199 19.0546 56.9281 18.89L56.1734 18.8076V17.6138V16.4062L56.5851 16.2416C57.5182 15.8573 58.369 14.4714 58.369 13.3324C58.369 12.2072 57.5594 10.9173 56.5302 10.3821C55.9676 10.094 54.5816 10.0116 53.9641 10.2449ZM55.8304 12.6051C56.0499 12.811 56.1734 13.0992 56.1734 13.3599C56.1734 13.6206 56.0499 13.9088 55.8304 14.1146C55.6245 14.3342 55.3364 14.4577 55.0756 14.4577C54.8149 14.4577 54.5267 14.3342 54.3209 14.1146C54.1014 13.9088 53.9779 13.6206 53.9779 13.3599C53.9779 13.0992 54.1014 12.811 54.3209 12.6051C54.5267 12.3856 54.8149 12.2621 55.0756 12.2621C55.3364 12.2621 55.6245 12.3856 55.8304 12.6051ZM57.2986 21.3188C57.5594 21.5109 57.724 21.8814 57.9436 22.7459C58.0945 23.3909 58.2318 23.9809 58.2318 24.0633C58.2318 24.1319 57.5182 24.667 56.6537 25.2434L55.0756 26.3L53.4976 25.2434C52.6331 24.667 51.9195 24.1319 51.9195 24.0633C51.9195 23.9809 52.0567 23.3909 52.2077 22.7459C52.6331 21.0855 52.7017 21.0443 55.0756 21.0443C56.736 21.0443 56.9968 21.0718 57.2986 21.3188ZM51.302 26.4235C52.4684 27.2057 53.429 27.878 53.429 27.9192C53.429 27.9604 53.031 28.5367 52.537 29.1954C51.9058 30.0187 51.5765 30.3481 51.453 30.2794C51.3569 30.2108 50.2866 29.3326 49.0653 28.3172L46.8423 26.4784L47.5558 25.7511C48.5987 24.6945 48.7085 24.7219 51.302 26.4235ZM62.5954 25.7511L63.3227 26.4784L60.9899 28.4269C59.7 29.4973 58.616 30.3755 58.5748 30.3755C58.4925 30.3755 56.7223 28.029 56.7223 27.9192C56.7223 27.878 57.6691 27.2057 58.8218 26.4372C61.4016 24.7082 61.5388 24.6808 62.5954 25.7511ZM68.9763 30.0324C70.9249 31.1028 72.5853 32.1182 72.846 32.3927C73.7654 33.3395 73.7379 32.8181 73.7379 46.2522V58.369H71.5424H69.3468V47.94V37.5111H68.249H67.1512V52.537V67.5766L66.8082 67.9059L66.4789 68.249H61.3193H56.1734V57.4084V46.5678L60.7978 37.319C63.3502 32.228 65.4634 28.0839 65.5046 28.0976C65.5457 28.125 67.1101 28.9896 68.9763 30.0324ZM56.0774 30.7872C57.1614 32.2417 57.628 32.5711 58.5474 32.5711C59.3295 32.5711 59.5765 32.4613 60.4959 31.6791C60.8802 31.3635 61.2644 31.0616 61.3604 31.0067C61.4565 30.9518 60.098 33.7786 58.3415 37.2915C56.5851 40.8044 55.1168 43.6861 55.0756 43.6861C55.0345 43.6861 53.5662 40.8182 51.8097 37.3053C50.067 33.7924 48.6673 30.9244 48.7085 30.9244C48.7634 30.9244 49.1476 31.2263 49.573 31.5968C50.5747 32.4613 50.808 32.5711 51.6039 32.5711C52.5233 32.5711 52.9898 32.2417 54.0739 30.7872C54.5816 30.1148 55.0345 29.5522 55.0756 29.5522C55.1168 29.5522 55.5696 30.1148 56.0774 30.7872ZM73.7379 61.3192C73.7379 61.9505 73.683 62.1426 73.3949 62.417C73.0793 62.7464 72.9969 62.7601 71.1993 62.7601H69.3468V61.6623V60.5645H71.5424H73.7379V61.3192Z" fill="white"/>
<path d="M14.4578 44.0978V46.2933H13.6893C13.2639 46.2933 12.6602 46.3619 12.3445 46.458C11.5898 46.6775 10.4509 47.8165 10.2313 48.5712C10.0118 49.3397 10.0118 54.2248 10.2313 54.9932C10.5469 56.0636 12.0838 57.2711 13.1404 57.2711C13.3326 57.2711 13.36 57.7377 13.36 62.2112C13.36 66.6846 13.3326 67.1512 13.1404 67.1512C12.0838 67.1512 10.5469 68.3587 10.2313 69.4291C10.0118 70.1564 10.0118 72.9283 10.2313 73.6555C10.4509 74.4103 11.5898 75.5492 12.3445 75.7688C12.7699 75.8923 16.1319 75.9334 26.0119 75.9334C40.8732 75.9334 39.9401 76.0021 40.9829 74.8357C41.7514 73.9849 41.9023 73.436 41.9023 71.5423C41.9023 69.6486 41.7514 69.0997 40.9829 68.249C39.9812 67.1375 40.1184 67.1512 32.2693 67.1512H25.4356V62.2112V57.2711H27.6998C29.5248 57.2711 29.964 57.3123 29.964 57.4633C29.964 57.9024 30.9657 59.6039 31.5557 60.1391C32.1321 60.6743 33.6552 61.5251 34.0532 61.5251C34.1767 61.5251 34.2179 61.9642 34.2179 63.2403V64.9556H35.3156H36.4134V63.2403C36.4134 61.8818 36.4546 61.5251 36.6055 61.5251C36.7016 61.5251 37.223 61.3055 37.7445 61.0448C38.9246 60.4547 39.7205 59.6314 40.2968 58.3964L40.7359 57.477L40.7771 51.7136C40.8046 47.5283 40.7771 45.7856 40.6536 45.3602C40.4203 44.5231 39.4598 43.494 38.6502 43.2195C37.8405 42.9451 32.9966 42.9039 32.1046 43.1646C31.0343 43.4803 29.8267 45.0171 29.8267 46.0738C29.8267 46.2659 29.4837 46.2933 26.5334 46.2933H23.24V44.0978V41.9022H22.1423H21.0445V44.0978V46.2933H18.8489H16.6533V44.0978V41.9022H15.5556H14.4578V44.0978ZM38.2659 45.5386L38.609 45.8679V51.2471C38.609 55.0619 38.5541 56.7909 38.4443 57.1888C38.0875 58.3689 36.5781 59.4667 35.3156 59.4667C34.0532 59.4667 32.5437 58.3689 32.187 57.1888C32.0772 56.7909 32.0223 55.0619 32.0223 51.2471V45.8679L32.3654 45.5386C32.6947 45.1955 32.7221 45.1955 35.3156 45.1955C37.9092 45.1955 37.9366 45.1955 38.2659 45.5386ZM29.8267 51.7822V55.0756H21.3875H12.9346L12.6053 54.7325C12.2622 54.4032 12.2622 54.3757 12.2622 51.7822C12.2622 49.1887 12.2622 49.1613 12.6053 48.8319L12.9346 48.4889H21.3875H29.8267V51.7822ZM23.24 62.2112V67.1512H19.3978H15.5556V62.2112V57.2711H19.3978H23.24V62.2112ZM39.3637 69.6898C39.693 70.0054 39.7068 70.1152 39.7068 71.5423C39.7068 72.9694 39.693 73.0792 39.3637 73.3948L39.0344 73.7379H25.9845H12.9346L12.6053 73.3948C12.2759 73.0792 12.2622 72.9694 12.2622 71.5423C12.2622 70.1152 12.2759 70.0054 12.6053 69.6898L12.9346 69.3468H25.9845H39.0344L39.3637 69.6898Z" fill="white"/>
<path d="M49.9298 51.0275C49.2437 51.6999 49.724 52.88 50.6846 52.88C51.2472 52.88 51.7824 52.3448 51.7824 51.7822C51.7824 51.2196 51.2472 50.6844 50.6846 50.6844C50.4239 50.6844 50.1357 50.8079 49.9298 51.0275Z" fill="white"/>
<path d="M49.9298 56.5164C49.2437 57.1888 49.724 58.3689 50.6846 58.3689C51.2472 58.3689 51.7824 57.8337 51.7824 57.2711C51.7824 56.7085 51.2472 56.1733 50.6846 56.1733C50.4239 56.1733 50.1357 56.2968 49.9298 56.5164Z" fill="white"/>
<path d="M49.9298 62.0053C49.2437 62.6777 49.724 63.8578 50.6846 63.8578C51.2472 63.8578 51.7824 63.3226 51.7824 62.76C51.7824 62.1974 51.2472 61.6622 50.6846 61.6622C50.4239 61.6622 50.1357 61.7857 49.9298 62.0053Z" fill="white"/>
</svg>
