<svg width="86" height="86" viewBox="0 0 86 86" fill="none" xmlns="http://www.w3.org/2000/svg">
<rect width="86" height="86" rx="10" fill="black"/>
<path fill-rule="evenodd" clip-rule="evenodd" d="M73.9915 41.5054C72.3356 39.9941 69.462 39.6205 67.5323 40.7831C66.017 41.7026 63.9676 42.5333 63.3124 43.9334C60.9938 48.82 57.3977 48.8548 52.8532 47.8213C50.6169 47.3143 48.1158 47.9727 45.7344 48.0741C44.6424 48.1227 43.6985 47.9574 43.2527 46.7101C42.8398 45.5489 41.8077 45.0238 40.6214 44.9683C38.5362 44.8599 36.427 44.6363 34.3717 44.8571C31.8705 45.1252 29.353 45.603 27.4697 47.5796C26.0905 49.027 24.641 50.4049 23.1974 51.7856C21.1122 53.7719 20.9476 53.7469 19.2109 51.4036C18.7412 50.7633 18.4316 49.8618 17.3904 50.0577C16.5273 50.2091 16.6051 50.9744 16.5138 51.6314C16.4196 52.2815 15.7898 52.5315 15.3725 52.9343C14.1967 54.0525 12.9985 55.1318 11.8662 56.3083C10.5229 57.7015 10.8684 58.7183 11.8527 59.9253C12.2237 60.3851 12.5453 60.9074 12.994 61.2783C18.3702 65.7495 22.3523 71.7571 28.9655 74.9199C30.5931 75.6992 31.4203 75.4755 32.427 74.5893C33.6432 73.5184 34.6918 72.2544 35.8556 71.1168C38.2968 68.7151 38.4345 68.0748 36.9954 65.2634C37.5968 64.8397 38.2729 65.0342 38.9176 65.0384C43.8346 65.0675 48.7575 65.0648 53.6715 65.2023C56.5167 65.2759 58.8547 64.5647 60.8143 62.3673C62.5854 60.3893 64.8203 58.8211 66.6019 56.8542C69.4545 53.69 72.8801 50.9647 74.6886 46.9532C75.5906 44.9558 75.7611 43.1111 73.9915 41.5054ZM30.5871 72.2738C28.9147 72.3322 27.5759 71.5862 26.3193 70.607C22.0471 67.2608 18.644 63.0215 14.5692 59.4781C13.6552 58.6891 13.6373 57.8015 14.4391 56.9931C15.374 56.0486 16.4211 55.2151 17.4144 54.3317C17.8153 53.9733 18.1922 54.022 18.5946 54.3512C19.8033 55.3249 21.3366 56.0763 22.1683 57.2945C24.4689 60.656 27.8511 62.6312 31.1151 64.7967C32.3702 65.6315 33.0299 67.3483 34.9236 67.2594C35.0388 67.2497 35.2797 67.7136 35.2886 67.9664C35.32 68.6943 31.3649 72.2835 30.5871 72.2738ZM72.4732 46.0406C70.723 49.7146 67.5652 52.2746 64.8831 55.1957C63.1389 57.0931 60.9774 58.6266 59.2586 60.5421C57.6027 62.3881 55.6969 62.9701 53.317 62.8506C50.94 62.7312 48.5571 62.8229 46.1786 62.8229V62.6909C43.6476 62.6909 41.1136 62.6867 38.5855 62.6909C38.0635 62.6909 37.5444 62.7006 37.0209 62.7215C35.4203 62.7909 33.9483 64.0674 32.1907 62.734C29.3141 60.5546 25.9454 58.9697 24.0531 55.6805C23.8122 55.2554 23.5759 54.8207 23.9633 54.497C26.8848 52.1051 28.7157 48.4158 32.8444 47.4574C35.2273 46.9032 37.5848 47.2588 39.9573 47.2546C40.7426 47.2504 41.1959 47.7074 41.4158 48.3978C41.9393 50.0438 43.2542 50.4035 44.762 50.3563C47.3604 50.2813 49.9602 50.1229 52.563 50.0535C53.5174 50.0243 54.5271 49.9799 55.2122 50.8814C55.649 51.4564 56.2579 51.9287 56.0739 52.8024C55.8674 53.7775 55.0582 53.7386 54.3581 53.9053C50.5242 54.8095 46.7037 55.8846 42.6992 54.8637C41.8406 54.647 40.9326 54.6026 40.2265 53.9636C39.6895 53.4802 39.0463 53.1469 38.4823 53.8094C37.8271 54.5776 38.2041 55.3499 38.8084 55.9722C39.4008 56.5819 40.2385 56.7181 41.0313 56.9181C44.7172 57.8446 48.3955 57.8168 52.0724 56.8695C53.0118 56.6264 53.9467 56.2375 54.8906 56.2083C57.6101 56.1138 58.5376 54.4637 58.5675 52.1634C58.584 51.0342 59.0193 50.5813 60.0305 50.3938C61.9512 50.0313 63.0776 48.9034 63.8569 47.1018C64.8816 44.7405 67.1987 43.6042 69.4037 42.5736C70.4538 42.0777 71.6131 42.5958 72.4747 43.4028C73.3707 44.246 72.8786 45.1808 72.4732 46.0406Z" fill="white"/>
<path fill-rule="evenodd" clip-rule="evenodd" d="M35.0837 42.8861C36.3073 42.8069 36.1757 41.6818 36.1428 40.815C36.0875 39.4135 36.1084 38.03 36.448 36.6549C37.9842 30.432 40.8683 25.2815 47.4038 22.9215C48.8249 22.409 49.1435 21.527 48.0889 20.2074C47.2198 19.1212 46.5556 17.8682 45.8645 16.6542C44.8533 14.8749 45.4053 13.6303 47.4068 13.0636C48.2998 12.8108 49.1674 12.99 50.0485 13.1942C52.0754 13.665 54.0919 14.2679 56.21 14.0679C57.1659 13.9776 57.4815 14.2318 57.0417 15.1513C55.8764 17.6002 55.4905 20.8547 51.4711 20.3241C51.2691 20.2963 51.0358 20.4185 50.8338 20.506C50.0305 20.8491 48.8982 21.0755 49.2467 22.2395C49.6117 23.4452 50.6603 23.0271 51.501 22.7382C53.124 22.1812 54.4853 22.359 55.6954 23.7286C56.566 24.7203 57.664 25.5163 58.6573 26.4025C62.0873 29.468 64.6662 32.9392 64.3192 37.8328C64.2668 38.5551 64.5406 39.2051 65.3768 39.2496C66.2354 39.2927 66.4837 38.5842 66.5914 37.9245C66.9056 35.9909 66.5585 34.1407 65.9063 32.3017C64.4628 28.2207 61.2766 25.5204 58.1906 22.7618C57.3379 22.0006 57.115 21.4047 57.4591 20.3241C58.1951 17.9891 59.4157 15.8819 60.4119 13.6692C60.756 12.9052 60.949 12.0552 60.3701 11.362C59.7567 10.6272 58.8802 10.7772 58.1038 11.1314C56.2265 11.9857 54.3402 11.7676 52.415 11.3384C50.756 10.9689 49.1285 10.4119 47.3619 10.6731C43.4262 11.2523 41.8256 14.3096 43.7209 17.7127C44.0799 18.3558 44.4105 19.0225 44.8324 19.6254C45.5414 20.6352 45.4038 21.2269 44.2146 21.82C36.9341 25.4662 34.807 32.1544 33.6492 38.8634C33.7135 39.9358 33.7075 40.4539 33.7853 40.9609C33.9109 41.8026 33.8242 42.9722 35.0837 42.8861Z" fill="white"/>
<path fill-rule="evenodd" clip-rule="evenodd" d="M51.6371 42.8805C50.581 43.1194 49.7104 42.9347 49.1674 41.9277C48.7665 41.1845 48.3253 40.3372 47.332 40.9678C46.4823 41.5096 46.7636 42.4194 47.1241 43.1611C47.9064 44.7821 49.5728 45.6517 50.8458 46.7379C51.9498 47.6824 51.854 45.3322 52.8174 45.0085C53.0986 44.9155 53.3768 44.7988 53.6326 44.6515C56.8802 42.7555 56.8847 38.1509 53.6147 36.2826C52.5227 35.6562 51.3589 35.1492 50.2145 34.6214C48.8683 34.0019 48.958 33.0504 49.7299 32.1322C50.943 30.6862 52.0291 31.2502 52.9969 32.5045C53.4262 33.0573 53.9572 33.4699 54.7171 33.1518C55.1943 32.9517 55.2946 32.5267 55.2108 31.8919C55.1614 31.7641 55.0911 31.471 54.9475 31.2224C54.0036 29.5889 52.1083 28.7624 51.3948 26.8247C51.0911 26.0052 49.6745 26.4552 49.7703 27.4734C49.9049 28.8555 49.0702 29.3597 48.2849 30.1237C45.8571 32.4878 46.3941 35.4103 49.4502 36.8771C50.4539 37.3591 51.4636 37.83 52.4449 38.3551C53.3933 38.8635 53.8211 39.7024 53.6207 40.7512C53.4127 41.8304 52.8099 42.618 51.6371 42.8805Z" fill="white"/>
<path fill-rule="evenodd" clip-rule="evenodd" d="M19.1884 57.6765C18.3448 57.7821 17.9618 58.1918 18.0695 58.8864C18.2864 60.1962 18.8773 61.2658 20.3448 61.5213C21.0374 61.6408 21.6731 61.2783 21.4801 60.5754C21.1346 59.3017 20.3522 58.2599 19.1884 57.6765Z" fill="white"/>
</svg>
