<svg width="13" height="13" viewBox="0 0 13 13" fill="none" xmlns="http://www.w3.org/2000/svg">
<path d="M12.3942 9.43239C11.8556 8.87841 10.3246 7.84062 9.3212 7.84062C9.08879 7.84062 8.88589 7.89233 8.71988 7.99943C8.22924 8.31335 7.8382 8.5571 7.65006 8.5571C7.54677 8.5571 7.4361 8.46477 7.19262 8.25426L7.15204 8.21733C6.47695 7.63011 6.33308 7.47869 6.07115 7.2054L6.00475 7.13523C5.95679 7.08721 5.91621 7.0429 5.87563 7.00227C5.64691 6.76591 5.48091 6.59602 4.89435 5.93125L4.86853 5.9017C4.58816 5.58409 4.40371 5.37727 4.39264 5.22585C4.38157 5.07812 4.51069 4.83807 4.83901 4.39119C5.23743 3.85199 5.25219 3.18722 4.88697 2.41534C4.59554 1.80597 4.11965 1.22244 3.6991 0.709091L3.66221 0.664773C3.30068 0.221591 2.88013 0 2.41163 0C1.89147 0 1.45985 0.280682 1.23113 0.428409C1.21269 0.439489 1.19424 0.454261 1.1758 0.465341C0.663022 0.790341 0.290429 1.23722 0.150245 1.69148C-0.06003 2.37472 -0.200213 3.26108 0.806894 5.10398C1.67751 6.69943 2.46696 7.77045 3.72124 9.05937C4.90173 10.2707 5.42557 10.6622 6.59869 11.5116C7.90461 12.4571 9.15888 13 10.0369 13C10.8521 13 11.494 13 12.4089 11.8957C13.3681 10.7361 12.9697 10.027 12.3942 9.43239Z" fill="black"/>
</svg>
